{
	"asset":{
		"generator":"Khronos glTF Blender I/O v3.6.28",
		"version":"2.0"
	},
	"extensionsUsed":[
		"KHR_materials_emissive_strength"
	],
	"scene":0,
	"scenes":[
		{
			"name":"Scene",
			"nodes":[
				0,
				1
			]
		}
	],
	"nodes":[
		{
			"camera":0,
			"name":"Camera",
			"translation":[
				0,
				0,
				19.099998474121094
			]
		},
		{
			"mesh":0,
			"name":"NurbsPath",
			"rotation":[
				0,
				0.6819983720779419,
				0,
				0.7313537001609802
			],
			"scale":[
				4,
				2,
				2
			],
			"translation":[
				-0.9099999666213989,
				0.14999999105930328,
				-0.14999999105930328
			]
		}
	],
	"cameras":[
		{
			"name":"Camera",
			"perspective":{
				"aspectRatio":1.7777777777777777,
				"yfov":0.4859673093754322,
				"zfar":100000,
				"znear":0.0010000000474974513
			},
			"type":"perspective"
		}
	],
	"materials":[
		{
			"doubleSided":true,
			"emissiveFactor":[
				1,
				0.45893127837515224,
				0.1618334332862423
			],
			"extensions":{
				"KHR_materials_emissive_strength":{
					"emissiveStrength":1.4733760570289576
				}
			},
			"name":"Mat\u00e9riau.001",
			"pbrMetallicRoughness":{
				"baseColorFactor":[
					0,
					0,
					0,
					1
				],
				"metallicFactor":0,
				"roughnessFactor":0.5
			}
		}
	],
	"meshes":[
		{
			"name":"NurbsPath",
			"primitives":[
				{
					"attributes":{
						"POSITION":0,
						"NORMAL":1,
						"TEXCOORD_0":2,
						"TANGENT":3
					},
					"indices":4,
					"material":0
				}
			]
		}
	],
	"accessors":[
		{
			"bufferView":0,
			"componentType":5126,
			"count":3328,
			"max":[
				2,
				4.9198832511901855,
				6.28651762008667
			],
			"min":[
				-2,
				-4.9198832511901855,
				-3.553248882293701
			],
			"type":"VEC3"
		},
		{
			"bufferView":1,
			"componentType":5126,
			"count":3328,
			"type":"VEC3"
		},
		{
			"bufferView":2,
			"componentType":5126,
			"count":3328,
			"type":"VEC2"
		},
		{
			"bufferView":3,
			"componentType":5126,
			"count":3328,
			"type":"VEC4"
		},
		{
			"bufferView":4,
			"componentType":5123,
			"count":18360,
			"type":"SCALAR"
		}
	],
	"bufferViews":[
		{
			"buffer":0,
			"byteLength":39936,
			"byteOffset":0,
			"target":34962
		},
		{
			"buffer":0,
			"byteLength":39936,
			"byteOffset":39936,
			"target":34962
		},
		{
			"buffer":0,
			"byteLength":26624,
			"byteOffset":79872,
			"target":34962
		},
		{
			"buffer":0,
			"byteLength":53248,
			"byteOffset":106496,
			"target":34962
		},
		{
			"buffer":0,
			"byteLength":36720,
			"byteOffset":159744,
			"target":34963
		}
	],
	"buffers":[
		{
			"byteLength":196464,
			"uri":"data:application/octet-stream;base64,"
		}
	]
}
